<?xml version="1.0" standalone="no"?>
<!DOCTYPE svg PUBLIC "-//W3C//DTD SVG 20010904//EN"
 "http://www.w3.org/TR/2001/REC-SVG-20010904/DTD/svg10.dtd">
<svg version="1.0" xmlns="http://www.w3.org/2000/svg"
 width="200.000000pt" height="78.000000pt" viewBox="0 0 200.000000 78.000000"
 preserveAspectRatio="xMidYMid meet">

<g transform="translate(0.000000,78.000000) scale(0.100000,-0.100000)"
fill="#000000" stroke="none">
<path d="M1515 773 c-11 -2 -40 -20 -65 -39 -122 -94 -167 -111 -223 -83 -21
10 -21 10 -2 -6 48 -38 133 -38 193 1 41 26 142 116 142 125 0 9 -9 9 -45 2z"/>
<path d="M1247 742 c-30 -33 -15 -72 28 -72 44 0 63 60 26 80 -27 14 -35 13
-54 -8z"/>
<path d="M1095 664 c73 -68 122 -95 178 -95 35 -1 97 14 97 23 0 2 -24 2 -52
0 -47 -3 -58 0 -97 30 -105 79 -135 98 -160 98 -24 -1 -22 -4 34 -56z"/>
<path d="M776 577 c7 -19 -111 -326 -130 -339 -6 -4 11 -8 37 -8 30 0 46 4 42
10 -4 6 -1 26 5 45 l12 35 72 0 72 0 34 -70 c19 -39 34 -80 33 -90 -2 -17 5
-20 43 -20 43 0 53 7 35 26 -15 14 -171 386 -171 406 0 15 -9 18 -45 18 -33 0
-43 -3 -39 -13z m66 -135 c26 -68 24 -72 -27 -72 -25 0 -45 4 -45 9 0 19 43
121 49 116 3 -3 13 -27 23 -53z"/>
<path d="M1870 580 c-9 -6 -10 -10 -3 -10 6 0 15 5 18 10 8 12 4 12 -15 0z"/>
<path d="M207 531 c5 -19 -118 -351 -140 -378 -7 -10 2 -13 41 -13 45 0 50 2
45 19 -3 11 0 36 7 55 l12 36 78 0 78 0 16 -40 c8 -22 13 -46 10 -55 -5 -12 3
-15 45 -15 50 0 60 6 42 25 -20 22 -143 346 -138 365 5 18 0 20 -48 20 -48 0
-53 -2 -48 -19z m76 -158 l25 -68 -50 -3 c-28 -2 -52 -1 -55 2 -7 6 40 136 48
136 4 0 18 -30 32 -67z"/>
<path d="M499 536 c9 -10 11 -69 9 -203 l-3 -189 105 2 c58 1 125 -1 150 -5
l45 -7 0 40 0 41 -117 -3 -118 -3 0 158 c0 110 4 163 12 171 9 9 0 12 -41 12
-45 0 -52 -2 -42 -14z"/>
<path d="M1110 531 c13 -26 13 -364 0 -377 -7 -7 4 -11 32 -12 l43 -3 -3 143
c-2 78 -1 140 1 138 3 -3 28 -60 57 -128 29 -67 56 -124 60 -127 4 -2 33 53
65 123 32 70 60 129 62 132 2 2 3 -60 1 -138 l-3 -142 40 0 40 0 -3 191 c-2
136 0 195 9 205 10 12 2 14 -49 14 -47 0 -60 -3 -56 -13 4 -12 -78 -210 -95
-229 -10 -11 -105 218 -96 231 4 7 -14 11 -55 11 -57 0 -60 -1 -50 -19z"/>
<path d="M1706 535 c6 -15 -119 -350 -137 -370 -18 -19 -8 -26 34 -24 39 2 44
5 44 28 0 14 6 38 12 54 10 26 13 27 89 27 l79 0 13 -39 c7 -22 10 -47 7 -55
-5 -13 3 -16 48 -16 54 0 65 6 45 26 -6 6 -41 88 -80 184 -53 132 -67 177 -59
187 9 11 1 13 -44 13 -46 0 -55 -3 -51 -15z m73 -161 c13 -36 21 -67 18 -70
-3 -3 -27 -4 -55 -2 l-50 3 25 68 c14 37 28 67 32 67 3 0 17 -30 30 -66z"/>
<path d="M77 83 c-4 -3 -7 -20 -7 -36 0 -38 9 -31 14 11 4 34 3 36 -7 25z"/>
<path d="M118 83 c12 -2 30 -2 40 0 9 3 -1 5 -23 4 -22 0 -30 -2 -17 -4z"/>
<path d="M453 83 c15 -2 37 -2 50 0 12 2 0 4 -28 4 -27 0 -38 -2 -22 -4z"/>
<path d="M803 83 c15 -2 39 -2 55 0 15 2 2 4 -28 4 -30 0 -43 -2 -27 -4z"/>
<path d="M1163 83 c15 -2 39 -2 55 0 15 2 2 4 -28 4 -30 0 -43 -2 -27 -4z"/>
<path d="M1873 83 c15 -2 39 -2 55 0 15 2 2 4 -28 4 -30 0 -43 -2 -27 -4z"/>
<path d="M779 57 c5 -5 21 -7 37 -5 27 3 26 4 -8 9 -22 3 -34 1 -29 -4z"/>
<path d="M1134 45 c1 -16 8 -20 36 -21 34 -1 34 -1 3 3 -19 3 -33 11 -36 21
-3 12 -4 11 -3 -3z"/>
<path d="M113 53 c9 -2 25 -2 35 0 9 3 1 5 -18 5 -19 0 -27 -2 -17 -5z"/>
<path d="M463 53 c9 -2 23 -2 30 0 6 3 -1 5 -18 5 -16 0 -22 -2 -12 -5z"/>
<path d="M858 53 c7 -3 16 -2 19 1 4 3 -2 6 -13 5 -11 0 -14 -3 -6 -6z"/>
<path d="M1878 53 c12 -2 32 -2 45 0 12 2 2 4 -23 4 -25 0 -35 -2 -22 -4z"/>
<path d="M1225 30 c-3 -5 -1 -10 4 -10 6 0 11 5 11 10 0 6 -2 10 -4 10 -3 0
-8 -4 -11 -10z"/>
<path d="M1499 27 c5 -5 26 -7 47 -5 l39 3 -47 5 c-26 3 -43 1 -39 -3z"/>
<path d="M463 23 c9 -2 23 -2 30 0 6 3 -1 5 -18 5 -16 0 -22 -2 -12 -5z"/>
<path d="M1868 23 c12 -2 32 -2 45 0 12 2 2 4 -23 4 -25 0 -35 -2 -22 -4z"/>
</g>
</svg>
